<svg width="125" height="101" viewBox="0 0 125 101" fill="none" xmlns="http://www.w3.org/2000/svg">
<g opacity="0.9">
<path d="M27.5417 4.83535C29.3516 1.83447 32.6004 0 36.1048 0H141V101H36.1048C32.6004 101 29.3516 99.1655 27.5417 96.1646L3.11495 55.6646C1.19906 52.4881 1.19907 48.5119 3.11496 45.3354L27.5417 4.83535Z" fill="#1F1F1F" fill-opacity="0.7"/>
<path d="M47.6268 61.95H48.5268C48.5135 61.5567 48.4368 61.22 48.2968 60.94C48.1635 60.6533 47.9768 60.4167 47.7368 60.23C47.5035 60.0433 47.2301 59.9067 46.9168 59.82C46.6035 59.7333 46.2635 59.69 45.8968 59.69C45.5701 59.69 45.2501 59.7333 44.9368 59.82C44.6301 59.9 44.3535 60.0267 44.1068 60.2C43.8668 60.3667 43.6735 60.5833 43.5268 60.85C43.3801 61.11 43.3068 61.42 43.3068 61.78C43.3068 62.1067 43.3701 62.38 43.4968 62.6C43.6301 62.8133 43.8035 62.99 44.0168 63.13C44.2368 63.2633 44.4835 63.3733 44.7568 63.46C45.0301 63.54 45.3068 63.6133 45.5868 63.68C45.8735 63.74 46.1535 63.8 46.4268 63.86C46.7001 63.92 46.9435 64 47.1568 64.1C47.3768 64.1933 47.5501 64.3167 47.6768 64.47C47.8101 64.6233 47.8768 64.8233 47.8768 65.07C47.8768 65.33 47.8235 65.5433 47.7168 65.71C47.6101 65.8767 47.4701 66.01 47.2968 66.11C47.1235 66.2033 46.9268 66.27 46.7068 66.31C46.4935 66.35 46.2801 66.37 46.0668 66.37C45.8001 66.37 45.5401 66.3367 45.2868 66.27C45.0335 66.2033 44.8101 66.1 44.6168 65.96C44.4301 65.82 44.2768 65.6433 44.1568 65.43C44.0435 65.21 43.9868 64.95 43.9868 64.65H43.0868C43.0868 65.0833 43.1635 65.46 43.3168 65.78C43.4768 66.0933 43.6901 66.3533 43.9568 66.56C44.2301 66.76 44.5435 66.91 44.8968 67.01C45.2568 67.11 45.6368 67.16 46.0368 67.16C46.3635 67.16 46.6901 67.12 47.0168 67.04C47.3501 66.9667 47.6501 66.8467 47.9168 66.68C48.1835 66.5067 48.4001 66.2867 48.5668 66.02C48.7401 65.7467 48.8268 65.42 48.8268 65.04C48.8268 64.6867 48.7601 64.3933 48.6268 64.16C48.5001 63.9267 48.3268 63.7333 48.1068 63.58C47.8935 63.4267 47.6501 63.3067 47.3768 63.22C47.1035 63.1267 46.8235 63.0467 46.5368 62.98C46.2568 62.9133 45.9801 62.8533 45.7068 62.8C45.4335 62.74 45.1868 62.6667 44.9668 62.58C44.7535 62.4933 44.5801 62.3833 44.4468 62.25C44.3201 62.11 44.2568 61.93 44.2568 61.71C44.2568 61.4767 44.3001 61.2833 44.3868 61.13C44.4801 60.97 44.6001 60.8433 44.7468 60.75C44.9001 60.6567 45.0735 60.59 45.2668 60.55C45.4601 60.51 45.6568 60.49 45.8568 60.49C46.3501 60.49 46.7535 60.6067 47.0668 60.84C47.3868 61.0667 47.5735 61.4367 47.6268 61.95ZM54.9612 67L56.6112 61.83H55.7312L54.5712 66.06H54.5512L53.4712 61.83H52.5412L51.5012 66.06H51.4812L50.3112 61.83H49.3712L51.0312 67H51.9512L52.9912 62.89H53.0112L54.0612 67H54.9612ZM58.3193 60.9V59.86H57.4693V60.9H58.3193ZM57.4693 61.83V67H58.3193V61.83H57.4693ZM59.6661 61.83V68.97H60.5161V66.31H60.5361C60.6294 66.4633 60.7428 66.5933 60.8761 66.7C61.0161 66.8 61.1628 66.88 61.3161 66.94C61.4694 67 61.6228 67.0433 61.7761 67.07C61.9361 67.0967 62.0794 67.11 62.2061 67.11C62.5994 67.11 62.9428 67.04 63.2361 66.9C63.5361 66.76 63.7828 66.57 63.9761 66.33C64.1761 66.0833 64.3228 65.7967 64.4161 65.47C64.5161 65.1433 64.5661 64.7967 64.5661 64.43C64.5661 64.0633 64.5161 63.7167 64.4161 63.39C64.3161 63.0633 64.1661 62.7767 63.9661 62.53C63.7728 62.2767 63.5261 62.0767 63.2261 61.93C62.9328 61.7833 62.5861 61.71 62.1861 61.71C61.8261 61.71 61.4961 61.7767 61.1961 61.91C60.8961 62.0367 60.6761 62.2433 60.5361 62.53H60.5161V61.83H59.6661ZM63.6661 64.37C63.6661 64.6233 63.6394 64.87 63.5861 65.11C63.5328 65.35 63.4461 65.5633 63.3261 65.75C63.2061 65.9367 63.0461 66.0867 62.8461 66.2C62.6528 66.3133 62.4094 66.37 62.1161 66.37C61.8228 66.37 61.5728 66.3167 61.3661 66.21C61.1594 66.0967 60.9894 65.95 60.8561 65.77C60.7294 65.59 60.6361 65.3833 60.5761 65.15C60.5161 64.91 60.4861 64.6633 60.4861 64.41C60.4861 64.17 60.5128 63.9333 60.5661 63.7C60.6261 63.4667 60.7194 63.26 60.8461 63.08C60.9728 62.8933 61.1361 62.7433 61.3361 62.63C61.5361 62.5167 61.7794 62.46 62.0661 62.46C62.3394 62.46 62.5761 62.5133 62.7761 62.62C62.9828 62.7267 63.1494 62.87 63.2761 63.05C63.4094 63.23 63.5061 63.4367 63.5661 63.67C63.6328 63.8967 63.6661 64.13 63.6661 64.37ZM69.1538 63.92H66.1838C66.1972 63.72 66.2405 63.5333 66.3138 63.36C66.3872 63.18 66.4872 63.0233 66.6138 62.89C66.7405 62.7567 66.8905 62.6533 67.0638 62.58C67.2438 62.5 67.4438 62.46 67.6638 62.46C67.8772 62.46 68.0705 62.5 68.2438 62.58C68.4238 62.6533 68.5772 62.7567 68.7038 62.89C68.8372 63.0167 68.9405 63.17 69.0138 63.35C69.0938 63.53 69.1405 63.72 69.1538 63.92ZM69.9738 65.36H69.1338C69.0605 65.7 68.9072 65.9533 68.6738 66.12C68.4472 66.2867 68.1538 66.37 67.7938 66.37C67.5138 66.37 67.2705 66.3233 67.0638 66.23C66.8572 66.1367 66.6872 66.0133 66.5538 65.86C66.4205 65.7 66.3238 65.52 66.2638 65.32C66.2038 65.1133 66.1772 64.8967 66.1838 64.67H70.0538C70.0672 64.3567 70.0372 64.0267 69.9638 63.68C69.8972 63.3333 69.7705 63.0133 69.5838 62.72C69.4038 62.4267 69.1605 62.1867 68.8538 62C68.5538 61.8067 68.1738 61.71 67.7138 61.71C67.3605 61.71 67.0338 61.7767 66.7338 61.91C66.4405 62.0433 66.1838 62.23 65.9638 62.47C65.7505 62.71 65.5838 62.9933 65.4638 63.32C65.3438 63.6467 65.2838 64.0067 65.2838 64.4C65.2972 64.7933 65.3538 65.1567 65.4538 65.49C65.5605 65.8233 65.7172 66.11 65.9238 66.35C66.1305 66.59 66.3838 66.7767 66.6838 66.91C66.9905 67.0433 67.3505 67.11 67.7638 67.11C68.3505 67.11 68.8372 66.9633 69.2238 66.67C69.6105 66.3767 69.8605 65.94 69.9738 65.36ZM74.8981 61.83V60.28H74.0481V61.83H73.1681V62.58H74.0481V65.87C74.0481 66.11 74.0715 66.3033 74.1181 66.45C74.1648 66.5967 74.2348 66.71 74.3281 66.79C74.4281 66.87 74.5548 66.9267 74.7081 66.96C74.8681 66.9867 75.0581 67 75.2781 67H75.9281V66.25H75.5381C75.4048 66.25 75.2948 66.2467 75.2081 66.24C75.1281 66.2267 75.0648 66.2033 75.0181 66.17C74.9715 66.1367 74.9381 66.09 74.9181 66.03C74.9048 65.97 74.8981 65.89 74.8981 65.79V62.58H75.9281V61.83H74.8981ZM77.4924 64.42C77.4924 64.1067 77.5324 63.83 77.6124 63.59C77.6991 63.3433 77.8158 63.1367 77.9624 62.97C78.1091 62.8033 78.2791 62.6767 78.4724 62.59C78.6724 62.5033 78.8824 62.46 79.1024 62.46C79.3224 62.46 79.5291 62.5033 79.7224 62.59C79.9224 62.6767 80.0958 62.8033 80.2424 62.97C80.3891 63.1367 80.5024 63.3433 80.5824 63.59C80.6691 63.83 80.7124 64.1067 80.7124 64.42C80.7124 64.7333 80.6691 65.0133 80.5824 65.26C80.5024 65.5 80.3891 65.7033 80.2424 65.87C80.0958 66.03 79.9224 66.1533 79.7224 66.24C79.5291 66.3267 79.3224 66.37 79.1024 66.37C78.8824 66.37 78.6724 66.3267 78.4724 66.24C78.2791 66.1533 78.1091 66.03 77.9624 65.87C77.8158 65.7033 77.6991 65.5 77.6124 65.26C77.5324 65.0133 77.4924 64.7333 77.4924 64.42ZM76.5924 64.42C76.5924 64.8 76.6458 65.1533 76.7524 65.48C76.8591 65.8067 77.0191 66.0933 77.2324 66.34C77.4458 66.58 77.7091 66.77 78.0224 66.91C78.3358 67.0433 78.6958 67.11 79.1024 67.11C79.5158 67.11 79.8758 67.0433 80.1824 66.91C80.4958 66.77 80.7591 66.58 80.9724 66.34C81.1858 66.0933 81.3458 65.8067 81.4524 65.48C81.5591 65.1533 81.6124 64.8 81.6124 64.42C81.6124 64.04 81.5591 63.6867 81.4524 63.36C81.3458 63.0267 81.1858 62.74 80.9724 62.5C80.7591 62.2533 80.4958 62.06 80.1824 61.92C79.8758 61.78 79.5158 61.71 79.1024 61.71C78.6958 61.71 78.3358 61.78 78.0224 61.92C77.7091 62.06 77.4458 62.2533 77.2324 62.5C77.0191 62.74 76.8591 63.0267 76.7524 63.36C76.6458 63.6867 76.5924 64.04 76.5924 64.42ZM85.9178 65.37H85.0678C85.0811 65.69 85.1478 65.9633 85.2678 66.19C85.3878 66.41 85.5478 66.59 85.7478 66.73C85.9478 66.8633 86.1778 66.96 86.4378 67.02C86.6978 67.08 86.9711 67.11 87.2578 67.11C87.5178 67.11 87.7778 67.0833 88.0378 67.03C88.3045 66.9833 88.5411 66.8967 88.7478 66.77C88.9611 66.6433 89.1311 66.4767 89.2578 66.27C89.3911 66.0633 89.4578 65.8033 89.4578 65.49C89.4578 65.2433 89.4078 65.0367 89.3078 64.87C89.2145 64.7033 89.0878 64.5667 88.9278 64.46C88.7745 64.3467 88.5945 64.2567 88.3878 64.19C88.1878 64.1233 87.9811 64.0667 87.7678 64.02C87.5678 63.9733 87.3678 63.93 87.1678 63.89C86.9678 63.8433 86.7878 63.79 86.6278 63.73C86.4678 63.6633 86.3345 63.5833 86.2278 63.49C86.1278 63.39 86.0778 63.2667 86.0778 63.12C86.0778 62.9867 86.1111 62.88 86.1778 62.8C86.2445 62.7133 86.3311 62.6467 86.4378 62.6C86.5445 62.5467 86.6611 62.51 86.7878 62.49C86.9211 62.47 87.0511 62.46 87.1778 62.46C87.3178 62.46 87.4545 62.4767 87.5878 62.51C87.7278 62.5367 87.8545 62.5833 87.9678 62.65C88.0811 62.7167 88.1745 62.8067 88.2478 62.92C88.3211 63.0267 88.3645 63.1633 88.3778 63.33H89.2278C89.2078 63.0167 89.1411 62.7567 89.0278 62.55C88.9145 62.3367 88.7611 62.17 88.5678 62.05C88.3811 61.9233 88.1645 61.8367 87.9178 61.79C87.6711 61.7367 87.4011 61.71 87.1078 61.71C86.8811 61.71 86.6511 61.74 86.4178 61.8C86.1911 61.8533 85.9845 61.94 85.7978 62.06C85.6178 62.1733 85.4678 62.3233 85.3478 62.51C85.2345 62.6967 85.1778 62.92 85.1778 63.18C85.1778 63.5133 85.2611 63.7733 85.4278 63.96C85.5945 64.1467 85.8011 64.2933 86.0478 64.4C86.3011 64.5 86.5745 64.58 86.8678 64.64C87.1611 64.6933 87.4311 64.7567 87.6778 64.83C87.9311 64.8967 88.1411 64.9867 88.3078 65.1C88.4745 65.2133 88.5578 65.38 88.5578 65.6C88.5578 65.76 88.5178 65.8933 88.4378 66C88.3578 66.1 88.2545 66.1767 88.1278 66.23C88.0078 66.2833 87.8745 66.32 87.7278 66.34C87.5811 66.36 87.4411 66.37 87.3078 66.37C87.1345 66.37 86.9645 66.3533 86.7978 66.32C86.6378 66.2867 86.4911 66.2333 86.3578 66.16C86.2311 66.08 86.1278 65.9767 86.0478 65.85C85.9678 65.7167 85.9245 65.5567 85.9178 65.37ZM93.9878 63.92H91.0178C91.0311 63.72 91.0745 63.5333 91.1478 63.36C91.2211 63.18 91.3211 63.0233 91.4478 62.89C91.5745 62.7567 91.7245 62.6533 91.8978 62.58C92.0778 62.5 92.2778 62.46 92.4978 62.46C92.7111 62.46 92.9045 62.5 93.0778 62.58C93.2578 62.6533 93.4111 62.7567 93.5378 62.89C93.6711 63.0167 93.7745 63.17 93.8478 63.35C93.9278 63.53 93.9745 63.72 93.9878 63.92ZM94.8078 65.36H93.9678C93.8945 65.7 93.7411 65.9533 93.5078 66.12C93.2811 66.2867 92.9878 66.37 92.6278 66.37C92.3478 66.37 92.1045 66.3233 91.8978 66.23C91.6911 66.1367 91.5211 66.0133 91.3878 65.86C91.2545 65.7 91.1578 65.52 91.0978 65.32C91.0378 65.1133 91.0111 64.8967 91.0178 64.67H94.8878C94.9011 64.3567 94.8711 64.0267 94.7978 63.68C94.7311 63.3333 94.6045 63.0133 94.4178 62.72C94.2378 62.4267 93.9945 62.1867 93.6878 62C93.3878 61.8067 93.0078 61.71 92.5478 61.71C92.1945 61.71 91.8678 61.7767 91.5678 61.91C91.2745 62.0433 91.0178 62.23 90.7978 62.47C90.5845 62.71 90.4178 62.9933 90.2978 63.32C90.1778 63.6467 90.1178 64.0067 90.1178 64.4C90.1311 64.7933 90.1878 65.1567 90.2878 65.49C90.3945 65.8233 90.5511 66.11 90.7578 66.35C90.9645 66.59 91.2178 66.7767 91.5178 66.91C91.8245 67.0433 92.1845 67.11 92.5978 67.11C93.1845 67.11 93.6711 66.9633 94.0578 66.67C94.4445 66.3767 94.6945 65.94 94.8078 65.36ZM99.3589 63.92H96.3889C96.4022 63.72 96.4456 63.5333 96.5189 63.36C96.5922 63.18 96.6922 63.0233 96.8189 62.89C96.9456 62.7567 97.0956 62.6533 97.2689 62.58C97.4489 62.5 97.6489 62.46 97.8689 62.46C98.0822 62.46 98.2756 62.5 98.4489 62.58C98.6289 62.6533 98.7822 62.7567 98.9089 62.89C99.0422 63.0167 99.1456 63.17 99.2189 63.35C99.2989 63.53 99.3456 63.72 99.3589 63.92ZM100.179 65.36H99.3389C99.2656 65.7 99.1122 65.9533 98.8789 66.12C98.6522 66.2867 98.3589 66.37 97.9989 66.37C97.7189 66.37 97.4756 66.3233 97.2689 66.23C97.0622 66.1367 96.8922 66.0133 96.7589 65.86C96.6256 65.7 96.5289 65.52 96.4689 65.32C96.4089 65.1133 96.3822 64.8967 96.3889 64.67H100.259C100.272 64.3567 100.242 64.0267 100.169 63.68C100.102 63.3333 99.9756 63.0133 99.7889 62.72C99.6089 62.4267 99.3656 62.1867 99.0589 62C98.7589 61.8067 98.3789 61.71 97.9189 61.71C97.5656 61.71 97.2389 61.7767 96.9389 61.91C96.6456 62.0433 96.3889 62.23 96.1689 62.47C95.9556 62.71 95.7889 62.9933 95.6689 63.32C95.5489 63.6467 95.4889 64.0067 95.4889 64.4C95.5022 64.7933 95.5589 65.1567 95.6589 65.49C95.7656 65.8233 95.9222 66.11 96.1289 66.35C96.3356 66.59 96.5889 66.7767 96.8889 66.91C97.1956 67.0433 97.5556 67.11 97.9689 67.11C98.5556 67.11 99.0422 66.9633 99.4289 66.67C99.8156 66.3767 100.066 65.94 100.179 65.36ZM41.8513 73.83V72.28H41.0013V73.83H40.1213V74.58H41.0013V77.87C41.0013 78.11 41.0246 78.3033 41.0713 78.45C41.1179 78.5967 41.1879 78.71 41.2812 78.79C41.3813 78.87 41.5079 78.9267 41.6613 78.96C41.8213 78.9867 42.0113 79 42.2313 79H42.8813V78.25H42.4913C42.3579 78.25 42.2479 78.2467 42.1613 78.24C42.0813 78.2267 42.0179 78.2033 41.9713 78.17C41.9246 78.1367 41.8913 78.09 41.8713 78.03C41.8579 77.97 41.8513 77.89 41.8513 77.79V74.58H42.8813V73.83H41.8513ZM43.8255 71.86V79H44.6755V76.08C44.6755 75.8467 44.7055 75.6333 44.7655 75.44C44.8322 75.24 44.9289 75.0667 45.0555 74.92C45.1822 74.7733 45.3389 74.66 45.5255 74.58C45.7189 74.5 45.9455 74.46 46.2055 74.46C46.5322 74.46 46.7889 74.5533 46.9755 74.74C47.1622 74.9267 47.2555 75.18 47.2555 75.5V79H48.1055V75.6C48.1055 75.32 48.0755 75.0667 48.0155 74.84C47.9622 74.6067 47.8655 74.4067 47.7255 74.24C47.5855 74.0733 47.4022 73.9433 47.1755 73.85C46.9489 73.7567 46.6655 73.71 46.3255 73.71C46.1722 73.71 46.0122 73.7267 45.8455 73.76C45.6855 73.7933 45.5289 73.8467 45.3755 73.92C45.2289 73.9867 45.0955 74.0767 44.9755 74.19C44.8555 74.2967 44.7622 74.43 44.6955 74.59H44.6755V71.86H43.8255ZM52.9722 75.92H50.0022C50.0155 75.72 50.0589 75.5333 50.1322 75.36C50.2055 75.18 50.3055 75.0233 50.4322 74.89C50.5589 74.7567 50.7089 74.6533 50.8822 74.58C51.0622 74.5 51.2622 74.46 51.4822 74.46C51.6955 74.46 51.8889 74.5 52.0622 74.58C52.2422 74.6533 52.3955 74.7567 52.5222 74.89C52.6555 75.0167 52.7589 75.17 52.8322 75.35C52.9122 75.53 52.9589 75.72 52.9722 75.92ZM53.7922 77.36H52.9522C52.8789 77.7 52.7255 77.9533 52.4922 78.12C52.2655 78.2867 51.9722 78.37 51.6122 78.37C51.3322 78.37 51.0889 78.3233 50.8822 78.23C50.6755 78.1367 50.5055 78.0133 50.3722 77.86C50.2389 77.7 50.1422 77.52 50.0822 77.32C50.0222 77.1133 49.9955 76.8967 50.0022 76.67H53.8722C53.8855 76.3567 53.8555 76.0267 53.7822 75.68C53.7155 75.3333 53.5889 75.0133 53.4022 74.72C53.2222 74.4267 52.9789 74.1867 52.6722 74C52.3722 73.8067 51.9922 73.71 51.5322 73.71C51.1789 73.71 50.8522 73.7767 50.5522 73.91C50.2589 74.0433 50.0022 74.23 49.7822 74.47C49.5689 74.71 49.4022 74.9933 49.2822 75.32C49.1622 75.6467 49.1022 76.0067 49.1022 76.4C49.1155 76.7933 49.1722 77.1567 49.2722 77.49C49.3789 77.8233 49.5355 78.11 49.7422 78.35C49.9489 78.59 50.2022 78.7767 50.5022 78.91C50.8089 79.0433 51.1689 79.11 51.5822 79.11C52.1689 79.11 52.6555 78.9633 53.0422 78.67C53.4289 78.3767 53.6789 77.94 53.7922 77.36ZM57.5365 73.83V79H58.3865V76.08C58.3865 75.8467 58.4165 75.6333 58.4765 75.44C58.5432 75.24 58.6398 75.0667 58.7665 74.92C58.8932 74.7733 59.0498 74.66 59.2365 74.58C59.4298 74.5 59.6565 74.46 59.9165 74.46C60.2432 74.46 60.4998 74.5533 60.6865 74.74C60.8732 74.9267 60.9665 75.18 60.9665 75.5V79H61.8165V75.6C61.8165 75.32 61.7865 75.0667 61.7265 74.84C61.6732 74.6067 61.5765 74.4067 61.4365 74.24C61.2965 74.0733 61.1132 73.9433 60.8865 73.85C60.6598 73.7567 60.3765 73.71 60.0365 73.71C59.2698 73.71 58.7098 74.0233 58.3565 74.65H58.3365V73.83H57.5365ZM66.6831 75.92H63.7131C63.7265 75.72 63.7698 75.5333 63.8431 75.36C63.9165 75.18 64.0165 75.0233 64.1431 74.89C64.2698 74.7567 64.4198 74.6533 64.5931 74.58C64.7731 74.5 64.9731 74.46 65.1931 74.46C65.4065 74.46 65.5998 74.5 65.7731 74.58C65.9531 74.6533 66.1065 74.7567 66.2331 74.89C66.3665 75.0167 66.4698 75.17 66.5431 75.35C66.6231 75.53 66.6698 75.72 66.6831 75.92ZM67.5031 77.36H66.6631C66.5898 77.7 66.4365 77.9533 66.2031 78.12C65.9765 78.2867 65.6831 78.37 65.3231 78.37C65.0431 78.37 64.7998 78.3233 64.5931 78.23C64.3865 78.1367 64.2165 78.0133 64.0831 77.86C63.9498 77.7 63.8531 77.52 63.7931 77.32C63.7331 77.1133 63.7065 76.8967 63.7131 76.67H67.5831C67.5965 76.3567 67.5665 76.0267 67.4931 75.68C67.4265 75.3333 67.2998 75.0133 67.1131 74.72C66.9331 74.4267 66.6898 74.1867 66.3831 74C66.0831 73.8067 65.7031 73.71 65.2431 73.71C64.8898 73.71 64.5631 73.7767 64.2631 73.91C63.9698 74.0433 63.7131 74.23 63.4931 74.47C63.2798 74.71 63.1131 74.9933 62.9931 75.32C62.8731 75.6467 62.8131 76.0067 62.8131 76.4C62.8265 76.7933 62.8831 77.1567 62.9831 77.49C63.0898 77.8233 63.2465 78.11 63.4531 78.35C63.6598 78.59 63.9131 78.7767 64.2131 78.91C64.5198 79.0433 64.8798 79.11 65.2931 79.11C65.8798 79.11 66.3665 78.9633 66.7531 78.67C67.1398 78.3767 67.3898 77.94 67.5031 77.36ZM69.8542 76.28L67.9142 79H68.9442L70.3842 76.86L71.8242 79H72.9142L70.9142 76.21L72.6942 73.83H71.6742L70.3842 75.64L69.1442 73.83H68.0542L69.8542 76.28ZM74.82 73.83V72.28H73.97V73.83H73.09V74.58H73.97V77.87C73.97 78.11 73.9933 78.3033 74.04 78.45C74.0867 78.5967 74.1567 78.71 74.25 78.79C74.35 78.87 74.4767 78.9267 74.63 78.96C74.79 78.9867 74.98 79 75.2 79H75.85V78.25H75.46C75.3267 78.25 75.2167 78.2467 75.13 78.24C75.05 78.2267 74.9867 78.2033 74.94 78.17C74.8933 78.1367 74.86 78.09 74.84 78.03C74.8267 77.97 74.82 77.89 74.82 77.79V74.58H75.85V73.83H74.82ZM84.1575 78.98C84.0108 79.0667 83.8075 79.11 83.5475 79.11C83.3275 79.11 83.1508 79.05 83.0175 78.93C82.8908 78.8033 82.8275 78.6 82.8275 78.32C82.5942 78.6 82.3208 78.8033 82.0075 78.93C81.7008 79.05 81.3675 79.11 81.0075 79.11C80.7742 79.11 80.5508 79.0833 80.3375 79.03C80.1308 78.9767 79.9508 78.8933 79.7975 78.78C79.6442 78.6667 79.5208 78.52 79.4275 78.34C79.3408 78.1533 79.2975 77.93 79.2975 77.67C79.2975 77.3767 79.3475 77.1367 79.4475 76.95C79.5475 76.7633 79.6775 76.6133 79.8375 76.5C80.0042 76.38 80.1908 76.29 80.3975 76.23C80.6108 76.17 80.8275 76.12 81.0475 76.08C81.2808 76.0333 81.5008 76 81.7075 75.98C81.9208 75.9533 82.1075 75.92 82.2675 75.88C82.4275 75.8333 82.5542 75.77 82.6475 75.69C82.7408 75.6033 82.7875 75.48 82.7875 75.32C82.7875 75.1333 82.7508 74.9833 82.6775 74.87C82.6108 74.7567 82.5208 74.67 82.4075 74.61C82.3008 74.55 82.1775 74.51 82.0375 74.49C81.9042 74.47 81.7708 74.46 81.6375 74.46C81.2775 74.46 80.9775 74.53 80.7375 74.67C80.4975 74.8033 80.3675 75.06 80.3475 75.44H79.4975C79.5108 75.12 79.5775 74.85 79.6975 74.63C79.8175 74.41 79.9775 74.2333 80.1775 74.1C80.3775 73.96 80.6042 73.86 80.8575 73.8C81.1175 73.74 81.3942 73.71 81.6875 73.71C81.9208 73.71 82.1508 73.7267 82.3775 73.76C82.6108 73.7933 82.8208 73.8633 83.0075 73.97C83.1942 74.07 83.3442 74.2133 83.4575 74.4C83.5708 74.5867 83.6275 74.83 83.6275 75.13V77.79C83.6275 77.99 83.6375 78.1367 83.6575 78.23C83.6842 78.3233 83.7642 78.37 83.8975 78.37C83.9708 78.37 84.0575 78.3533 84.1575 78.32V78.98ZM82.7775 76.33C82.6708 76.41 82.5308 76.47 82.3575 76.51C82.1842 76.5433 82.0008 76.5733 81.8075 76.6C81.6208 76.62 81.4308 76.6467 81.2375 76.68C81.0442 76.7067 80.8708 76.7533 80.7175 76.82C80.5642 76.8867 80.4375 76.9833 80.3375 77.11C80.2442 77.23 80.1975 77.3967 80.1975 77.61C80.1975 77.75 80.2242 77.87 80.2775 77.97C80.3375 78.0633 80.4108 78.14 80.4975 78.2C80.5908 78.26 80.6975 78.3033 80.8175 78.33C80.9375 78.3567 81.0642 78.37 81.1975 78.37C81.4775 78.37 81.7175 78.3333 81.9175 78.26C82.1175 78.18 82.2808 78.0833 82.4075 77.97C82.5342 77.85 82.6275 77.7233 82.6875 77.59C82.7475 77.45 82.7775 77.32 82.7775 77.2V76.33ZM84.9186 73.83V79H85.7686V76.7C85.7686 76.3667 85.8019 76.0733 85.8686 75.82C85.9353 75.56 86.0419 75.34 86.1886 75.16C86.3353 74.98 86.5286 74.8433 86.7686 74.75C87.0086 74.6567 87.2986 74.61 87.6386 74.61V73.71C87.1786 73.6967 86.7986 73.79 86.4986 73.99C86.1986 74.19 85.9453 74.5 85.7386 74.92H85.7186V73.83H84.9186ZM89.4587 73.83V72.28H88.6087V73.83H87.7287V74.58H88.6087V77.87C88.6087 78.11 88.632 78.3033 88.6787 78.45C88.7253 78.5967 88.7953 78.71 88.8887 78.79C88.9887 78.87 89.1153 78.9267 89.2687 78.96C89.4287 78.9867 89.6187 79 89.8387 79H90.4887V78.25H90.0987C89.9653 78.25 89.8553 78.2467 89.7687 78.24C89.6887 78.2267 89.6253 78.2033 89.5787 78.17C89.532 78.1367 89.4987 78.09 89.4787 78.03C89.4653 77.97 89.4587 77.89 89.4587 77.79V74.58H90.4887V73.83H89.4587ZM92.333 72.9V71.86H91.483V72.9H92.333ZM91.483 73.83V79H92.333V73.83H91.483ZM97.1598 75.49H98.0398C98.0064 75.1833 97.9264 74.92 97.7998 74.7C97.6731 74.4733 97.5098 74.2867 97.3098 74.14C97.1164 73.9933 96.8898 73.8867 96.6298 73.82C96.3764 73.7467 96.1031 73.71 95.8098 73.71C95.4031 73.71 95.0464 73.7833 94.7398 73.93C94.4331 74.07 94.1764 74.2667 93.9698 74.52C93.7698 74.7667 93.6198 75.06 93.5198 75.4C93.4198 75.7333 93.3698 76.0933 93.3698 76.48C93.3698 76.8667 93.4198 77.2233 93.5198 77.55C93.6264 77.87 93.7798 78.1467 93.9798 78.38C94.1864 78.6133 94.4398 78.7933 94.7398 78.92C95.0464 79.0467 95.3964 79.11 95.7898 79.11C96.4498 79.11 96.9698 78.9367 97.3498 78.59C97.7364 78.2433 97.9764 77.75 98.0698 77.11H97.1998C97.1464 77.51 96.9998 77.82 96.7598 78.04C96.5264 78.26 96.1998 78.37 95.7798 78.37C95.5131 78.37 95.2831 78.3167 95.0898 78.21C94.8964 78.1033 94.7398 77.9633 94.6198 77.79C94.4998 77.61 94.4098 77.4067 94.3498 77.18C94.2964 76.9533 94.2698 76.72 94.2698 76.48C94.2698 76.22 94.2964 75.97 94.3498 75.73C94.4031 75.4833 94.4898 75.2667 94.6098 75.08C94.7364 74.8933 94.9031 74.7433 95.1098 74.63C95.3164 74.5167 95.5731 74.46 95.8798 74.46C96.2398 74.46 96.5264 74.55 96.7398 74.73C96.9531 74.91 97.0931 75.1633 97.1598 75.49ZM99.0709 71.86V79H99.9209V71.86H99.0709ZM104.828 75.92H101.858C101.871 75.72 101.914 75.5333 101.988 75.36C102.061 75.18 102.161 75.0233 102.288 74.89C102.414 74.7567 102.564 74.6533 102.738 74.58C102.918 74.5 103.118 74.46 103.338 74.46C103.551 74.46 103.744 74.5 103.918 74.58C104.098 74.6533 104.251 74.7567 104.378 74.89C104.511 75.0167 104.614 75.17 104.688 75.35C104.768 75.53 104.814 75.72 104.828 75.92ZM105.648 77.36H104.808C104.734 77.7 104.581 77.9533 104.348 78.12C104.121 78.2867 103.828 78.37 103.468 78.37C103.188 78.37 102.944 78.3233 102.738 78.23C102.531 78.1367 102.361 78.0133 102.228 77.86C102.094 77.7 101.998 77.52 101.938 77.32C101.878 77.1133 101.851 76.8967 101.858 76.67H105.728C105.741 76.3567 105.711 76.0267 105.638 75.68C105.571 75.3333 105.444 75.0133 105.258 74.72C105.078 74.4267 104.834 74.1867 104.528 74C104.228 73.8067 103.848 73.71 103.388 73.71C103.034 73.71 102.708 73.7767 102.408 73.91C102.114 74.0433 101.858 74.23 101.638 74.47C101.424 74.71 101.258 74.9933 101.138 75.32C101.018 75.6467 100.958 76.0067 100.958 76.4C100.971 76.7933 101.028 77.1567 101.128 77.49C101.234 77.8233 101.391 78.11 101.598 78.35C101.804 78.59 102.058 78.7767 102.358 78.91C102.664 79.0433 103.024 79.11 103.438 79.11C104.024 79.11 104.511 78.9633 104.898 78.67C105.284 78.3767 105.534 77.94 105.648 77.36Z" fill="white"/>
<path d="M80.5983 38.6105L76.738 32.5157C76.738 32.5157 76.738 32.5152 76.738 32.5148C75.8774 31.1573 74.0725 30.7522 72.7165 31.6123C72.222 31.9255 71.8549 32.3651 71.6284 32.863C71.4129 32.7533 71.1872 32.6605 70.9448 32.6061C70.1867 32.4354 69.405 32.571 68.7479 32.9871C68.263 33.294 67.8907 33.7275 67.6583 34.2378C67.4428 34.1282 67.2177 34.0353 66.9757 33.981C66.2162 33.8107 65.4354 33.9463 64.7788 34.3624C64.4306 34.5832 64.1439 34.8718 63.9211 35.2038L61.375 31.1832C60.5158 29.8262 58.7124 29.4217 57.3545 30.2803C55.997 31.1399 55.5914 32.9438 56.4515 34.3013L65.3118 48.2924C67.032 51.0083 69.9697 52.4957 72.969 52.4957C74.6233 52.4957 76.2973 52.044 77.7953 51.0949C82.0107 48.4247 83.2676 42.8254 80.5983 38.6105ZM76.8654 49.6254C73.4602 51.7799 68.9374 50.7659 66.7819 47.3611L57.9202 33.37C57.5738 32.8226 57.7374 32.0958 58.2843 31.7489C58.8317 31.4031 59.5586 31.5657 59.9049 32.1131L66.6424 42.7522C66.8079 43.0135 67.0897 43.1563 67.3779 43.1563C67.5371 43.1563 67.6983 43.113 67.8421 43.0212C68.2481 42.7648 68.3684 42.2274 68.1115 41.8214L65.3465 37.455L65.345 37.4521C65.1771 37.1871 65.1228 36.873 65.1911 36.5666C65.2599 36.2601 65.4436 35.9989 65.7092 35.8315C65.9737 35.6632 66.2888 35.6088 66.5943 35.6781C66.9007 35.7473 67.1619 35.9306 67.3298 36.1957L70.0967 40.5645C70.2622 40.8257 70.5441 40.9695 70.8322 40.9695C70.991 40.9695 71.1521 40.9253 71.2964 40.8343C71.7024 40.577 71.8227 40.0397 71.5663 39.6337L69.315 36.0797C69.3146 36.0793 69.3141 36.0783 69.3141 36.0778C69.1457 35.8128 69.0914 35.4986 69.1597 35.1922C69.2285 34.8858 69.4122 34.6251 69.6777 34.4577C69.9428 34.2893 70.2564 34.234 70.5638 34.3037C70.8702 34.373 71.131 34.5563 71.2984 34.8213C71.2988 34.8218 71.2993 34.8223 71.2993 34.8223L71.8088 35.6266C71.8107 35.6295 71.8116 35.6319 71.8131 35.6343C71.8136 35.6353 71.8145 35.6362 71.8155 35.6372L73.5506 38.3782C73.7166 38.6394 73.9984 38.7832 74.2861 38.7832C74.4453 38.7832 74.6065 38.7389 74.7508 38.648C75.1568 38.3907 75.2775 37.8533 75.0202 37.4478L73.2822 34.7025C72.9373 34.1546 73.1008 33.4297 73.6468 33.0833C74.1947 32.737 74.9216 32.9005 75.2684 33.4475C75.2684 33.448 75.2684 33.4485 75.2689 33.4485L79.1287 39.5432C81.2848 42.9456 80.2698 47.4693 76.8654 49.6254ZM63.0331 27.5547L65.9468 29.071C66.0752 29.1383 66.2123 29.1696 66.3475 29.1696C66.6611 29.1696 66.9647 28.9993 67.1196 28.7015C67.3413 28.2749 67.1759 27.7496 66.7496 27.5283L65.6779 26.9708C68.8018 26.1405 72.0921 26.3483 75.1289 27.6062C75.2381 27.6514 75.3507 27.6731 75.4613 27.6731C75.8023 27.6731 76.1266 27.471 76.2651 27.1358C76.4489 26.6922 76.2382 26.1838 75.7942 26C72.387 24.5877 68.6921 24.3568 65.1882 25.2972L65.7221 24.2716C65.9439 23.8454 65.7784 23.3201 65.3522 23.0989C64.926 22.8761 64.4007 23.0426 64.1795 23.4688L62.6627 26.382C62.5559 26.5869 62.5353 26.8255 62.6045 27.0453C62.6748 27.2647 62.8287 27.448 63.0331 27.5547Z" fill="white"/>
</g>
</svg>
